<svg width="44" height="45" viewBox="0 0 44 45" fill="none" xmlns="http://www.w3.org/2000/svg">
<rect x="0.5" y="0.789062" width="43" height="43" rx="11.5" fill="#698FFB"/>
<rect x="0.5" y="0.789062" width="43" height="43" rx="11.5" stroke="#4A7AFA"/>
<path d="M23.125 30.0658C24.2828 29.4638 25.4491 29.0219 26.6241 28.7401C27.7991 28.4584 29.0078 28.3175 30.25 28.3175C31.15 28.3175 31.9953 28.3829 32.7858 28.5136C33.576 28.6444 34.3269 28.8309 35.0384 29.0731C35.1539 29.1214 35.2596 29.1143 35.3556 29.0518C35.4519 28.9893 35.5 28.8906 35.5 28.7559V14.5693C35.5 14.4828 35.476 14.4059 35.428 14.3386C35.3798 14.2714 35.298 14.2136 35.1828 14.1654C34.3577 13.8444 33.5544 13.6131 32.7726 13.4716C31.9909 13.3304 31.15 13.2598 30.25 13.2598C29.0078 13.2598 27.7731 13.4314 26.5461 13.7746C25.3191 14.1179 24.1788 14.6328 23.125 15.3193V30.0658ZM22 32.7365C21.7078 32.7365 21.4343 32.7 21.1795 32.627C20.9245 32.554 20.6836 32.4569 20.4569 32.3356C19.4241 31.7511 18.3438 31.3103 17.2158 31.013C16.088 30.716 14.9328 30.5675 13.75 30.5675C12.8348 30.5675 11.9358 30.6689 11.053 30.8716C10.1703 31.0746 9.31925 31.3733 8.5 31.7675C7.9655 32.0135 7.45687 31.9745 6.97412 31.6505C6.49137 31.3265 6.25 30.8674 6.25 30.2731V13.9869C6.25 13.6636 6.33325 13.3603 6.49975 13.0768C6.666 12.793 6.90587 12.5886 7.21937 12.4636C8.25012 11.9849 9.31212 11.6229 10.4054 11.3776C11.4986 11.1324 12.6135 11.0098 13.75 11.0098C15.2095 11.0098 16.6355 11.2093 18.028 11.6083C19.4202 12.0075 20.7443 12.5965 22 13.3753C23.2558 12.5965 24.5798 12.0075 25.972 11.6083C27.3645 11.2093 28.7905 11.0098 30.25 11.0098C31.3865 11.0098 32.5014 11.1324 33.5946 11.3776C34.6879 11.6229 35.7499 11.9849 36.7806 12.4636C37.0941 12.5886 37.334 12.793 37.5003 13.0768C37.6668 13.3603 37.75 13.6636 37.75 13.9869V30.2731C37.75 30.8674 37.499 31.3218 36.997 31.6363C36.495 31.9505 35.9671 31.9846 35.4134 31.7386C34.6039 31.3539 33.765 31.0625 32.8968 30.8645C32.0285 30.6665 31.1463 30.5675 30.25 30.5675C29.0673 30.5675 27.912 30.716 26.7843 31.013C25.6563 31.3103 24.5759 31.7511 23.5431 32.3356C23.3164 32.4569 23.0755 32.554 22.8205 32.627C22.5658 32.7 22.2923 32.7365 22 32.7365ZM24.9134 17.5809C24.9134 17.4136 24.973 17.2425 25.0923 17.0675C25.2115 16.8925 25.3471 16.7723 25.4991 16.7068C26.2434 16.4088 27.0093 16.1829 27.7968 16.0291C28.5843 15.8751 29.402 15.7981 30.25 15.7981C30.7405 15.7981 31.215 15.827 31.6735 15.8848C32.1323 15.9425 32.5942 16.0214 33.0595 16.1214C33.2365 16.1616 33.3894 16.2578 33.5181 16.4098C33.6471 16.5618 33.7116 16.7386 33.7116 16.9404C33.7116 17.2789 33.6054 17.5265 33.3929 17.6833C33.1804 17.84 32.9049 17.878 32.5664 17.7973C32.2066 17.7223 31.833 17.6684 31.4455 17.6356C31.058 17.6029 30.6595 17.5865 30.25 17.5865C29.523 17.5865 28.811 17.6563 28.114 17.7958C27.4167 17.9353 26.7519 18.1243 26.1194 18.3628C25.7654 18.4993 25.4759 18.4915 25.2509 18.3395C25.0259 18.1878 24.9134 17.9349 24.9134 17.5809ZM24.9134 25.7731C24.9134 25.6059 24.973 25.4324 25.0923 25.2526C25.2115 25.0729 25.3471 24.9503 25.4991 24.8848C26.2241 24.5868 26.99 24.3633 27.7968 24.2143C28.6035 24.0653 29.4213 23.9908 30.25 23.9908C30.7405 23.9908 31.215 24.0195 31.6735 24.077C32.1323 24.1348 32.5942 24.2136 33.0595 24.3136C33.2365 24.3541 33.3894 24.4503 33.5181 24.602C33.6471 24.754 33.7116 24.931 33.7116 25.133C33.7116 25.4713 33.6054 25.7188 33.3929 25.8755C33.1804 26.0323 32.9049 26.0703 32.5664 25.9895C32.2066 25.9145 31.833 25.8606 31.4455 25.8279C31.058 25.7954 30.6595 25.7791 30.25 25.7791C29.5328 25.7791 28.8279 25.8474 28.1354 25.9839C27.4431 26.1204 26.7806 26.3126 26.1479 26.5606C25.7941 26.7069 25.5 26.7031 25.2655 26.5494C25.0308 26.3954 24.9134 26.1366 24.9134 25.7731ZM24.9134 21.6916C24.9134 21.5244 24.973 21.3533 25.0923 21.1783C25.2115 21.0033 25.3471 20.883 25.4991 20.8175C26.2434 20.5195 27.0093 20.2935 27.7968 20.1395C28.5843 19.9858 29.402 19.9089 30.25 19.9089C30.7405 19.9089 31.215 19.9378 31.6735 19.9955C32.1323 20.053 32.5942 20.1318 33.0595 20.2318C33.2365 20.2723 33.3894 20.3685 33.5181 20.5205C33.6471 20.6723 33.7116 20.8491 33.7116 21.0511C33.7116 21.3896 33.6054 21.6373 33.3929 21.794C33.1804 21.9508 32.9049 21.9888 32.5664 21.908C32.2066 21.833 31.833 21.7791 31.4455 21.7464C31.058 21.7136 30.6595 21.6973 30.25 21.6973C29.523 21.6973 28.811 21.767 28.114 21.9065C27.4167 22.0458 26.7519 22.2346 26.1194 22.4731C25.7654 22.6096 25.4759 22.602 25.2509 22.4503C25.0259 22.2983 24.9134 22.0454 24.9134 21.6916Z" fill="white"/>
</svg>
