<svg width="20" height="16" viewBox="0 0 20 16" fill="none" xmlns="http://www.w3.org/2000/svg">
<path d="M2.30775 15.2891C1.80258 15.2891 1.375 15.1141 1.025 14.7641C0.675 14.4141 0.5 13.9865 0.5 13.4813V2.09681C0.5 1.59165 0.675 1.16406 1.025 0.814063C1.375 0.464062 1.80258 0.289062 2.30775 0.289062H17.6923C18.1974 0.289062 18.625 0.464062 18.975 0.814063C19.325 1.16406 19.5 1.59165 19.5 2.09681V13.4813C19.5 13.9865 19.325 14.4141 18.975 14.7641C18.625 15.1141 18.1974 15.2891 17.6923 15.2891H2.30775ZM18 3.23131L10.4865 8.04106C10.4097 8.08456 10.3302 8.11881 10.248 8.14381C10.166 8.16881 10.0833 8.18131 10 8.18131C9.91667 8.18131 9.834 8.16881 9.752 8.14381C9.66983 8.11881 9.59033 8.08456 9.5135 8.04106L2 3.23131V13.4813C2 13.5711 2.02883 13.6449 2.0865 13.7026C2.14417 13.7602 2.21792 13.7891 2.30775 13.7891H17.6923C17.7821 13.7891 17.8558 13.7602 17.9135 13.7026C17.9712 13.6449 18 13.5711 18 13.4813V3.23131ZM10 6.78906L17.8463 1.78906H2.15375L10 6.78906ZM2 3.46206V2.31881V2.34856V2.31681V3.46206Z" fill="black" fill-opacity="0.25"/>
</svg>
