<svg width="45" height="45" viewBox="0 0 45 45" fill="none" xmlns="http://www.w3.org/2000/svg">
<rect x="0.833374" y="0.789062" width="43" height="43" rx="11.5" fill="#FFB932"/>
<rect x="0.833374" y="0.789062" width="43" height="43" rx="11.5" stroke="#FFA204"/>
<path d="M26.3717 31.2881C25.4082 31.2881 24.5905 30.9521 23.9185 30.2801C23.2465 29.6079 22.9105 28.79 22.9105 27.8265C22.9105 26.863 23.2465 26.0452 23.9185 25.3732C24.5905 24.7012 25.4082 24.3652 26.3717 24.3652C27.3352 24.3652 28.1531 24.7012 28.8254 25.3732C29.4974 26.0452 29.8334 26.863 29.8334 27.8265C29.8334 28.79 29.4974 29.6079 28.8254 30.2801C28.1531 30.9521 27.3352 31.2881 26.3717 31.2881ZM12.295 36.5381C11.5372 36.5381 10.8959 36.2756 10.3709 35.7506C9.84587 35.2256 9.58337 34.5842 9.58337 33.8265V13.7497C9.58337 12.992 9.84587 12.3506 10.3709 11.8256C10.8959 11.3006 11.5372 11.0381 12.295 11.0381H14.3717V9.01873C14.3717 8.68998 14.4819 8.41548 14.7021 8.19523C14.9224 7.97523 15.1969 7.86523 15.5256 7.86523C15.8546 7.86523 16.1291 7.97523 16.3491 8.19523C16.5694 8.41548 16.6795 8.68998 16.6795 9.01873V11.0381H28.045V8.99023C28.045 8.67098 28.1526 8.40361 28.3679 8.18811C28.5834 7.97286 28.8507 7.86523 29.17 7.86523C29.4893 7.86523 29.7565 7.97286 29.9718 8.18811C30.1873 8.40361 30.295 8.67098 30.295 8.99023V11.0381H32.3717C33.1295 11.0381 33.7709 11.3006 34.2959 11.8256C34.8209 12.3506 35.0834 12.992 35.0834 13.7497V33.8265C35.0834 34.5842 34.8209 35.2256 34.2959 35.7506C33.7709 36.2756 33.1295 36.5381 32.3717 36.5381H12.295ZM12.295 34.2881H32.3717C32.4872 34.2881 32.593 34.24 32.689 34.1437C32.7853 34.0477 32.8334 33.942 32.8334 33.8265V19.7497H11.8334V33.8265C11.8334 33.942 11.8815 34.0477 11.9777 34.1437C12.0737 34.24 12.1795 34.2881 12.295 34.2881Z" fill="white"/>
</svg>
