<svg width="45" height="45" viewBox="0 0 45 45" fill="none" xmlns="http://www.w3.org/2000/svg">
<rect x="0.833374" y="0.789062" width="43" height="43" rx="11.5" fill="#7668EC"/>
<rect x="0.833374" y="0.789062" width="43" height="43" rx="11.5" stroke="#593AE5"/>
<path d="M9.81435 33.2513C9.0686 33.2513 8.43022 32.9858 7.89922 32.4548C7.36822 31.9238 7.10272 31.2854 7.10272 30.5396V16.809C7.10272 16.4903 7.2106 16.223 7.42635 16.0073C7.6421 15.7918 7.90935 15.684 8.2281 15.684C8.5471 15.684 8.81422 15.7918 9.02947 16.0073C9.24497 16.223 9.35272 16.4903 9.35272 16.809V30.5396C9.35272 30.6549 9.40072 30.7606 9.49672 30.8569C9.59297 30.9531 9.69885 31.0013 9.81435 31.0013H31.9678C32.2866 31.0013 32.5538 31.1091 32.7696 31.3249C32.9851 31.5404 33.0928 31.8076 33.0928 32.1266C33.0928 32.4456 32.9851 32.7128 32.7696 32.928C32.5538 33.1435 32.2866 33.2513 31.9678 33.2513H9.81435ZM15.064 28.0013C14.3185 28.0013 13.6802 27.7358 13.1492 27.2048C12.6182 26.6738 12.3527 26.0354 12.3527 25.2896V13.9241C12.3527 13.1786 12.6182 12.5404 13.1492 12.0094C13.6802 11.4784 14.3185 11.2129 15.064 11.2129H34.8523C35.5981 11.2129 36.2365 11.4784 36.7675 12.0094C37.2985 12.5404 37.564 13.1786 37.564 13.9241V25.2896C37.564 26.0354 37.2985 26.6738 36.7675 27.2048C36.2365 27.7358 35.5981 28.0013 34.8523 28.0013H15.064ZM17.314 25.7513C17.314 25.0033 17.0485 24.3643 16.5175 23.8343C15.9865 23.3045 15.3482 23.0396 14.6027 23.0396V25.2896C14.6027 25.4146 14.6483 25.5228 14.7396 25.614C14.8308 25.7055 14.939 25.7513 15.064 25.7513H17.314ZM32.6027 25.7513H34.8523C34.9773 25.7513 35.0856 25.7055 35.1771 25.614C35.2683 25.5228 35.314 25.4146 35.314 25.2896V23.0396C34.566 23.0396 33.9271 23.3051 33.3973 23.8361C32.8676 24.3671 32.6027 25.0055 32.6027 25.7513ZM24.9583 23.3569C26.0063 23.3569 26.8933 22.9939 27.6193 22.2679C28.3453 21.5419 28.7083 20.6549 28.7083 19.6069C28.7083 18.5589 28.3453 17.6719 27.6193 16.9459C26.8933 16.2199 26.0063 15.8569 24.9583 15.8569C23.9103 15.8569 23.0233 16.2199 22.2973 16.9459C21.5713 17.6719 21.2083 18.5589 21.2083 19.6069C21.2083 20.6549 21.5713 21.5419 22.2973 22.2679C23.0233 22.9939 23.9103 23.3569 24.9583 23.3569ZM14.6027 16.1741C15.3507 16.1741 15.9896 15.9086 16.5193 15.3776C17.0491 14.8466 17.314 14.2084 17.314 13.4629H15.064C14.939 13.4629 14.8308 13.5085 14.7396 13.5998C14.6483 13.691 14.6027 13.7991 14.6027 13.9241V16.1741ZM35.314 16.1741V13.9241C35.314 13.7991 35.2683 13.691 35.1771 13.5998C35.0856 13.5085 34.9773 13.4629 34.8523 13.4629H32.6027C32.6027 14.2109 32.8682 14.8498 33.3992 15.3795C33.9302 15.9093 34.5685 16.1741 35.314 16.1741Z" fill="white"/>
</svg>
