<svg width="44" height="45" viewBox="0 0 44 45" fill="none" xmlns="http://www.w3.org/2000/svg">
<rect x="0.5" y="0.789062" width="43" height="43" rx="11.5" fill="#698FFB"/>
<rect x="0.5" y="0.789062" width="43" height="43" rx="11.5" stroke="#4A7AFA"/>
<path d="M14.5 13.1438C13.7385 13.1438 13.0866 12.8727 12.5444 12.3305C12.0021 11.7882 11.731 11.1363 11.731 10.3748C11.731 9.61334 12.0021 8.96134 12.5444 8.41884C13.0866 7.87659 13.7385 7.60547 14.5 7.60547C15.2615 7.60547 15.9134 7.87659 16.4556 8.41884C16.9981 8.96134 17.2694 9.61334 17.2694 10.3748C17.2694 11.1363 16.9981 11.7882 16.4556 12.3305C15.9134 12.8727 15.2615 13.1438 14.5 13.1438ZM29.2405 21.0188C28.6635 21.0188 28.1682 20.8142 27.7547 20.405C27.3412 19.9955 27.1345 19.4982 27.1345 18.9132C27.1345 18.317 27.3412 17.817 27.7547 17.4132C28.1682 17.0095 28.6635 16.8076 29.2405 16.8076C29.8365 16.8076 30.3365 17.0095 30.7405 17.4132C31.1442 17.817 31.3461 18.3146 31.3461 18.9061C31.3461 19.4973 31.1442 19.9973 30.7405 20.4061C30.3365 20.8146 29.8365 21.0188 29.2405 21.0188ZM11.6732 35.5576V26.7305H10.6634C10.2794 26.7305 9.95736 26.6006 9.69736 26.3408C9.43761 26.0808 9.30774 25.7588 9.30774 25.3748V17.8171C9.30774 17.0713 9.57324 16.433 10.1042 15.902C10.6352 15.371 11.2736 15.1055 12.0194 15.1055H16.4616C16.9924 15.1055 17.4707 15.2416 17.8967 15.5138C18.3227 15.7858 18.6491 16.1593 18.8759 16.6343L23.4306 26.2141L25.9202 23.3498C26.1105 23.1076 26.3466 22.9181 26.6286 22.7813C26.9104 22.6448 27.2079 22.5766 27.5211 22.5766H31.2017C31.7707 22.5766 32.2544 22.7757 32.6526 23.174C33.0509 23.5722 33.25 24.0558 33.25 24.6248V28.4903C33.25 28.8613 33.0976 29.1377 32.7929 29.3195C32.4879 29.5012 32.1882 29.6767 31.894 29.846H31.75V35.5576C31.75 35.9416 31.62 36.2636 31.36 36.5236C31.1002 36.7833 30.7782 36.9132 30.394 36.9132H28.0866C27.7024 36.9132 27.3804 36.7833 27.1206 36.5236C26.8606 36.2636 26.7306 35.9416 26.7306 35.5576V25.8016L25.072 27.5727C24.9567 27.7342 24.8072 27.8553 24.6235 27.9361C24.4397 28.0171 24.2527 28.0576 24.0625 28.0576H22.603C22.3375 28.0576 22.1057 27.9926 21.9077 27.8626C21.7095 27.7328 21.5575 27.5555 21.4517 27.3305L18.25 20.2313V35.5576C18.25 35.9416 18.1201 36.2636 17.8604 36.5236C17.6004 36.7833 17.2784 36.9132 16.8944 36.9132H13.0289C12.6449 36.9132 12.3229 36.7833 12.0629 36.5236C11.8031 36.2636 11.6732 35.9416 11.6732 35.5576Z" fill="white"/>
</svg>
