<svg width="44" height="45" viewBox="0 0 44 45" fill="none" xmlns="http://www.w3.org/2000/svg">
<rect x="0.5" y="0.789062" width="43" height="43" rx="11.5" fill="#786DEC"/>
<rect x="0.5" y="0.789062" width="43" height="43" rx="11.5" stroke="#523FE6"/>
<path d="M20.9039 33.5391H8.875C8.55625 33.5391 8.28912 33.4312 8.07362 33.2154C7.85787 32.9997 7.75 32.7324 7.75 32.4137C7.75 32.0947 7.85787 31.8276 8.07362 31.6123C8.28912 31.3968 8.55625 31.2891 8.875 31.2891H20.9039C21.2226 31.2891 21.4898 31.3969 21.7053 31.6127C21.921 31.8284 22.0289 32.0957 22.0289 32.4144C22.0289 32.7334 21.921 33.0006 21.7053 33.2158C21.4898 33.4313 21.2226 33.5391 20.9039 33.5391ZM11.9616 29.5007C11.2039 29.5007 10.5625 29.2382 10.0375 28.7132C9.5125 28.1882 9.25 27.5468 9.25 26.7891V13.7507C9.25 12.9929 9.5125 12.3516 10.0375 11.8266C10.5625 11.3016 11.2039 11.0391 11.9616 11.0391H32.0384C32.7096 11.0391 33.2909 11.2559 33.7821 11.6897C34.2734 12.1232 34.5575 12.6563 34.6345 13.2891H27.3509C25.8624 13.2891 24.6033 13.8039 23.5735 14.8337C22.5438 15.8634 22.0289 17.1226 22.0289 18.6111V28.1447C22.0289 28.5289 21.899 28.8509 21.6393 29.1107C21.3793 29.3707 21.0573 29.5007 20.6733 29.5007H11.9616ZM27.6396 33.5391C27.0746 33.5391 26.5944 33.3413 26.1989 32.9458C25.8036 32.5503 25.606 32.0702 25.606 31.5054V18.8998C25.606 18.3323 25.8036 17.8514 26.1989 17.4572C26.5944 17.0632 27.0746 16.8662 27.6396 16.8662H34.3574C34.9269 16.8662 35.4088 17.0632 35.803 17.4572C36.197 17.8514 36.394 18.3323 36.394 18.8998V31.5054C36.394 32.0702 36.197 32.5503 35.803 32.9458C35.4088 33.3413 34.9269 33.5391 34.3574 33.5391H27.6396ZM30.9974 23.0391C31.3049 23.0391 31.5601 22.9326 31.7631 22.7196C31.9659 22.5068 32.0673 22.2584 32.0673 21.9744C32.0673 21.6669 31.9659 21.4117 31.7631 21.2087C31.5604 21.0059 31.304 20.9046 30.994 20.9046C30.7075 20.9046 30.459 21.0059 30.2485 21.2087C30.038 21.4114 29.9328 21.6678 29.9328 21.9778C29.9328 22.2641 30.0393 22.5126 30.2523 22.7233C30.465 22.9338 30.7134 23.0391 30.9974 23.0391Z" fill="white"/>
</svg>
