<svg width="45" height="45" viewBox="0 0 45 45" fill="none" xmlns="http://www.w3.org/2000/svg">
<rect x="1.16663" y="0.789062" width="43" height="43" rx="11.5" fill="#527EFB"/>
<rect x="1.16663" y="0.789062" width="43" height="43" rx="11.5" stroke="#3164FE"/>
<path d="M25.8958 17.7891C25.5103 17.7891 25.1883 17.6597 24.9298 17.4009C24.671 17.1424 24.5416 16.8176 24.5416 16.4263V10.9022C24.5416 10.5107 24.672 10.1857 24.9328 9.92719C25.1935 9.66844 25.5165 9.53906 25.9018 9.53906H34.0625C34.448 9.53906 34.77 9.66844 35.0285 9.92719C35.2873 10.1857 35.4166 10.5107 35.4166 10.9022V16.4263C35.4166 16.8176 35.2863 17.1424 35.0255 17.4009C34.7648 17.6597 34.4418 17.7891 34.0565 17.7891H25.8958ZM11.2708 23.0391C10.8853 23.0391 10.5633 22.9097 10.3048 22.6509C10.046 22.3922 9.91663 22.0716 9.91663 21.6891V10.8887C9.91663 10.5062 10.047 10.1857 10.3078 9.92719C10.5685 9.66844 10.8915 9.53906 11.2768 9.53906H19.4375C19.823 9.53906 20.145 9.66844 20.4035 9.92719C20.6623 10.1859 20.7916 10.5066 20.7916 10.8891V21.6894C20.7916 22.0719 20.6613 22.3924 20.4005 22.6509C20.1398 22.9097 19.8168 23.0391 19.4315 23.0391H11.2708ZM25.8958 35.0391C25.5103 35.0391 25.1883 34.9097 24.9298 34.6509C24.671 34.3922 24.5416 34.0716 24.5416 33.6891V22.8887C24.5416 22.5062 24.672 22.1857 24.9328 21.9272C25.1935 21.6684 25.5165 21.5391 25.9018 21.5391H34.0625C34.448 21.5391 34.77 21.6684 35.0285 21.9272C35.2873 22.1859 35.4166 22.5066 35.4166 22.8891V33.6894C35.4166 34.0719 35.2863 34.3924 35.0255 34.6509C34.7648 34.9097 34.4418 35.0391 34.0565 35.0391H25.8958ZM11.2708 35.0391C10.8853 35.0391 10.5633 34.9097 10.3048 34.6509C10.046 34.3924 9.91663 34.0674 9.91663 33.6759V28.1518C9.91663 27.7606 10.047 27.4357 10.3078 27.1772C10.5685 26.9184 10.8915 26.7891 11.2768 26.7891H19.4375C19.823 26.7891 20.145 26.9184 20.4035 27.1772C20.6623 27.4357 20.7916 27.7606 20.7916 28.1518V33.6759C20.7916 34.0674 20.6613 34.3924 20.4005 34.6509C20.1398 34.9097 19.8168 35.0391 19.4315 35.0391H11.2708Z" fill="white"/>
</svg>
