<svg width="44" height="45" viewBox="0 0 44 45" fill="none" xmlns="http://www.w3.org/2000/svg">
<rect x="0.5" y="0.789062" width="43" height="43" rx="11.5" fill="#698FFB"/>
<rect x="0.5" y="0.789062" width="43" height="43" rx="11.5" stroke="#4A7AFA"/>
<path d="M22 23.4141C23.3538 23.4141 24.5048 22.9401 25.453 21.9921C26.401 21.0438 26.875 19.8928 26.875 18.5391C26.875 17.1853 26.401 16.0343 25.453 15.0861C24.5048 14.1381 23.3538 13.6641 22 13.6641C20.6463 13.6641 19.4953 14.1381 18.547 15.0861C17.599 16.0343 17.125 17.1853 17.125 18.5391C17.125 19.8928 17.599 21.0438 18.547 21.9921C19.4953 22.9401 20.6463 23.4141 22 23.4141ZM22 34.1391C23.4078 33.6833 24.6684 32.9852 25.7819 32.0447C26.8951 31.1045 27.8624 30.0257 28.6836 28.8085C27.6471 28.2777 26.5669 27.871 25.4429 27.5882C24.3189 27.3055 23.1713 27.1641 22 27.1641C20.8288 27.1641 19.6811 27.3055 18.5571 27.5882C17.4331 27.871 16.3529 28.2777 15.3164 28.8085C16.1376 30.0257 17.1049 31.1045 18.2181 32.0447C19.3316 32.9852 20.5923 33.6833 22 34.1391ZM22 36.3456C21.8443 36.3456 21.6914 36.3331 21.5414 36.3081C21.3914 36.2831 21.2461 36.2456 21.1056 36.1956C17.9424 35.0706 15.4256 33.076 13.5554 30.2117C11.6851 27.3472 10.75 24.2563 10.75 20.9391V14.1835C10.75 13.616 10.9145 13.104 11.2435 12.6475C11.5723 12.1907 11.9953 11.8595 12.5125 11.6537L21.0509 8.46622C21.3721 8.35072 21.6885 8.29297 22 8.29297C22.3115 8.29297 22.6279 8.35072 22.9491 8.46622L31.4875 11.6537C32.0048 11.8595 32.4278 12.1907 32.7565 12.6475C33.0855 13.104 33.25 13.616 33.25 14.1835V20.9391C33.25 24.2563 32.3149 27.3472 30.4446 30.2117C28.5744 33.076 26.0576 35.0706 22.8944 36.1956C22.7539 36.2456 22.6086 36.2831 22.4586 36.3081C22.3086 36.3331 22.1558 36.3456 22 36.3456Z" fill="white"/>
</svg>
