<svg width="45" height="45" viewBox="0 0 45 45" fill="none" xmlns="http://www.w3.org/2000/svg">
<rect x="1.16663" y="0.789062" width="43" height="43" rx="11.5" fill="#53C093"/>
<rect x="1.16663" y="0.789062" width="43" height="43" rx="11.5" stroke="#2FB781"/>
<path d="M22.6666 21.8281C21.2229 21.8281 19.987 21.3141 18.959 20.2861C17.9308 19.2579 17.4166 18.0219 17.4166 16.5781C17.4166 15.1344 17.9308 13.8985 18.959 12.8705C19.987 11.8423 21.2229 11.3281 22.6666 11.3281C24.1104 11.3281 25.3463 11.8423 26.3743 12.8705C27.4025 13.8985 27.9166 15.1344 27.9166 16.5781C27.9166 18.0219 27.4025 19.2579 26.3743 20.2861C25.3463 21.3141 24.1104 21.8281 22.6666 21.8281ZM28.2339 33.2514V25.0794C28.8389 25.2691 29.4318 25.4729 30.0125 25.6906C30.5933 25.9084 31.1619 26.1555 31.7184 26.432C32.3916 26.7685 32.9263 27.2485 33.3223 27.872C33.7185 28.4953 33.9166 29.1788 33.9166 29.9225V30.9725C33.9166 31.605 33.695 32.143 33.2518 32.5865C32.8085 33.0298 32.2705 33.2514 31.6378 33.2514H28.2339ZM19.3494 28.7514V24.563C19.9021 24.459 20.455 24.3811 21.008 24.3294C21.5608 24.2774 22.1136 24.2514 22.6666 24.2514C23.2196 24.2514 23.7725 24.2774 24.3253 24.3294C24.8783 24.3811 25.4311 24.459 25.9839 24.563V28.7514H19.3494ZM11.4166 30.9725V29.9225C11.4166 29.1788 11.6148 28.4953 12.011 27.872C12.407 27.2485 12.9416 26.7685 13.6149 26.432C14.1714 26.1555 14.74 25.9084 15.3208 25.6906C15.9015 25.4729 16.4944 25.2691 17.0994 25.0794V33.2514H13.6955C13.0628 33.2514 12.5248 33.0298 12.0815 32.5865C11.6383 32.143 11.4166 31.605 11.4166 30.9725Z" fill="white"/>
</svg>
