<svg width="44" height="45" viewBox="0 0 44 45" fill="none" xmlns="http://www.w3.org/2000/svg">
<rect x="0.5" y="0.789062" width="43" height="43" rx="11.5" fill="#698FFB"/>
<rect x="0.5" y="0.789062" width="43" height="43" rx="11.5" stroke="#4A7AFA"/>
<path d="M9.25 29.9556V19.1298C9.25 18.5028 9.48125 17.9793 9.94375 17.5593C10.4062 17.139 10.951 16.9539 11.578 17.0039C13.5338 17.3039 15.3909 17.8851 17.1494 18.7476C18.9081 19.6101 20.525 20.7096 22 22.0461C23.475 20.7096 25.0919 19.6101 26.8506 18.7476C28.6091 17.8851 30.4662 17.3039 32.422 17.0039C33.049 16.9539 33.5938 17.139 34.0563 17.5593C34.5188 17.9793 34.75 18.5028 34.75 19.1298V29.9556C34.75 30.5536 34.5524 31.0666 34.1571 31.4946C33.7619 31.9224 33.2653 32.1613 32.6673 32.2113C30.9903 32.471 29.3994 32.886 27.8946 33.4563C26.3899 34.0263 24.949 34.7959 23.572 35.7651C23.3355 35.9516 23.0875 36.0891 22.828 36.1776C22.5682 36.2661 22.2923 36.3104 22 36.3104C21.7078 36.3104 21.4318 36.2661 21.172 36.1776C20.9125 36.0891 20.6645 35.9516 20.428 35.7651C19.051 34.7959 17.6125 34.0263 16.1125 33.4563C14.6125 32.886 13.0192 32.471 11.3327 32.2113C10.7347 32.1613 10.2381 31.9224 9.84287 31.4946C9.44762 31.0666 9.25 30.5536 9.25 29.9556ZM22 17.4711C20.5038 17.4711 19.2259 16.9413 18.1664 15.8815C17.1069 14.822 16.5771 13.5441 16.5771 12.0479C16.5771 10.5519 17.1069 9.274 18.1664 8.21425C19.2259 7.15475 20.5038 6.625 22 6.625C23.4963 6.625 24.7741 7.15475 25.8336 8.21425C26.8931 9.274 27.4229 10.5519 27.4229 12.0479C27.4229 13.5441 26.8931 14.822 25.8336 15.8815C24.7741 16.9413 23.4963 17.4711 22 17.4711Z" fill="white"/>
</svg>
