<svg width="44" height="45" viewBox="0 0 44 45" fill="none" xmlns="http://www.w3.org/2000/svg">
<rect x="0.5" y="0.789062" width="43" height="43" rx="11.5" fill="#698FFB"/>
<rect x="0.5" y="0.789062" width="43" height="43" rx="11.5" stroke="#4A7AFA"/>
<path d="M6.22412 33.8283V31.8494C6.22412 31.1112 6.41737 30.4324 6.80387 29.8132C7.19037 29.1939 7.72975 28.7112 8.422 28.3649C9.66825 27.7342 11.0625 27.213 12.6047 26.8015C14.147 26.39 15.7701 26.1843 17.4741 26.1843C19.1779 26.1843 20.8009 26.39 22.3431 26.8015C23.8854 27.213 25.2796 27.7342 26.5259 28.3649C27.2181 28.7112 27.7575 29.1939 28.144 29.8132C28.5307 30.4324 28.7241 31.1112 28.7241 31.8494V33.8283C28.7241 34.2148 28.5947 34.5374 28.336 34.7962C28.0772 35.0547 27.7546 35.1839 27.3681 35.1839H7.57975C7.19325 35.1839 6.87075 35.0547 6.61225 34.7962C6.3535 34.5374 6.22412 34.2148 6.22412 33.8283ZM17.4741 23.761C16.0069 23.761 14.765 23.2529 13.7485 22.2367C12.7322 21.2202 12.2241 19.9494 12.2241 18.4244H11.878C11.6817 18.4244 11.5221 18.3629 11.3991 18.2399C11.2761 18.1169 11.2146 17.9573 11.2146 17.761C11.2146 17.565 11.2761 17.4054 11.3991 17.2822C11.5221 17.1592 11.6817 17.0977 11.878 17.0977H12.2241C12.2434 16.1554 12.4606 15.304 12.8759 14.5435C13.2914 13.7828 13.8817 13.1303 14.647 12.586V14.011C14.647 14.2073 14.7086 14.3669 14.8319 14.4899C14.9549 14.6132 15.1145 14.6748 15.3107 14.6748C15.5067 14.6748 15.6662 14.6132 15.7892 14.4899C15.9125 14.3669 15.9741 14.2073 15.9741 14.011V12.0149C16.1894 11.9399 16.4245 11.8789 16.6795 11.8319C16.9342 11.7847 17.1991 11.761 17.4741 11.761C17.7491 11.761 18.014 11.7847 18.2687 11.8319C18.5235 11.8789 18.7586 11.9399 18.9741 12.0149V14.011C18.9741 14.2073 19.0356 14.3669 19.1586 14.4899C19.2816 14.6132 19.4412 14.6748 19.6375 14.6748C19.8337 14.6748 19.9934 14.6132 20.1164 14.4899C20.2394 14.3669 20.3009 14.2073 20.3009 14.011V12.586C21.0759 13.1303 21.6686 13.7828 22.0791 14.5435C22.4899 15.304 22.7049 16.1554 22.7241 17.0977H23.0702C23.2662 17.0977 23.4259 17.1592 23.5491 17.2822C23.6721 17.4054 23.7336 17.565 23.7336 17.761C23.7336 17.9573 23.6721 18.1169 23.5491 18.2399C23.4259 18.3629 23.2662 18.4244 23.0702 18.4244H22.7241C22.7241 19.9494 22.2159 21.2202 21.1994 22.2367C20.1831 23.2529 18.9414 23.761 17.4741 23.761ZM17.4741 21.511C18.3184 21.511 19.0294 21.2222 19.6071 20.6444C20.1851 20.0664 20.4741 19.3553 20.4741 18.511H14.4741C14.4741 19.3553 14.763 20.0664 15.3407 20.6444C15.9187 21.2222 16.6299 21.511 17.4741 21.511ZM28.6694 26.1179L28.5857 25.5783C28.4165 25.5283 28.2462 25.46 28.075 25.3735C27.9037 25.287 27.7509 25.1764 27.6164 25.0417L27.1229 25.2352C26.9671 25.2852 26.8176 25.2875 26.6744 25.2423C26.5311 25.197 26.4144 25.0965 26.3241 24.9408L26.2172 24.7507C26.127 24.6102 26.0981 24.462 26.1306 24.3063C26.1634 24.1505 26.2422 24.0198 26.3672 23.914L26.7857 23.5765C26.7665 23.4823 26.7569 23.3928 26.7569 23.308V22.7789C26.7569 22.6992 26.7665 22.6073 26.7857 22.5033L26.3672 22.1658C26.2422 22.06 26.1634 21.9293 26.1306 21.7735C26.0981 21.6178 26.127 21.4697 26.2172 21.3292L26.3241 21.139C26.4144 20.9833 26.5311 20.8828 26.6744 20.8375C26.8176 20.7923 26.9671 20.7947 27.1229 20.8447L27.6164 21.0382C27.7356 20.9189 27.8846 20.8122 28.0634 20.7179C28.2424 20.6237 28.4165 20.5515 28.5857 20.5015L28.6694 19.9619C28.7096 19.8062 28.7875 19.6744 28.903 19.5667C29.0182 19.4592 29.1537 19.4054 29.3095 19.4054H29.5229C29.6789 19.4054 29.8145 19.4592 29.9297 19.5667C30.0452 19.6744 30.1231 19.8062 30.1634 19.9619L30.247 20.5015C30.4162 20.5515 30.5904 20.6237 30.7694 20.7179C30.9481 20.8122 31.0971 20.9189 31.2164 21.0382L31.7095 20.8447C31.8652 20.7947 32.0147 20.7923 32.158 20.8375C32.3012 20.8828 32.4181 20.9833 32.5086 21.139L32.6155 21.3292C32.7057 21.4697 32.7345 21.6178 32.7017 21.7735C32.6692 21.9293 32.5905 22.06 32.4655 22.1658L32.047 22.5033C32.0662 22.6073 32.0759 22.6992 32.0759 22.7789V23.308C32.0759 23.3928 32.0662 23.4823 32.047 23.5765L32.4655 23.914C32.5905 24.0198 32.6692 24.1505 32.7017 24.3063C32.7345 24.462 32.7057 24.6102 32.6155 24.7507L32.5086 24.9408C32.4181 25.0965 32.3012 25.197 32.158 25.2423C32.0147 25.2875 31.8652 25.2852 31.7095 25.2352L31.2164 25.0417C31.0816 25.1764 30.9287 25.287 30.7577 25.3735C30.5865 25.46 30.4162 25.5283 30.247 25.5783L30.1634 26.1179C30.1231 26.2737 30.0452 26.4054 29.9297 26.5132C29.8145 26.6207 29.6789 26.6744 29.5229 26.6744H29.3095C29.1537 26.6744 29.0182 26.6207 28.903 26.5132C28.7875 26.4054 28.7096 26.2737 28.6694 26.1179ZM29.4164 24.2804C29.7549 24.2804 30.0462 24.1583 30.2905 23.914C30.5347 23.6698 30.6569 23.3784 30.6569 23.0399C30.6569 22.7014 30.5347 22.41 30.2905 22.1658C30.0462 21.9215 29.7549 21.7994 29.4164 21.7994C29.0779 21.7994 28.7865 21.9215 28.5422 22.1658C28.298 22.41 28.1759 22.7014 28.1759 23.0399C28.1759 23.3784 28.298 23.6698 28.5422 23.914C28.7865 24.1583 29.0779 24.2804 29.4164 24.2804ZM32.1827 18.1619L32.0759 17.4843C31.8221 17.4188 31.5702 17.3154 31.3202 17.1742C31.0702 17.0327 30.8606 16.8629 30.6914 16.6649L29.9905 16.9274C29.804 16.9927 29.6199 16.9912 29.4381 16.9229C29.2564 16.8547 29.1126 16.735 29.0069 16.564L28.8539 16.3042C28.7481 16.1332 28.7116 15.9505 28.7444 15.7563C28.7769 15.562 28.8787 15.3967 29.05 15.2602L29.6297 14.7843C29.5797 14.6495 29.55 14.5254 29.5405 14.4119C29.5307 14.2984 29.5259 14.1744 29.5259 14.0399C29.5259 13.9054 29.5307 13.7814 29.5405 13.6679C29.55 13.5544 29.5797 13.4303 29.6297 13.2955L29.05 12.8197C28.8787 12.6832 28.7769 12.5178 28.7444 12.3235C28.7116 12.1293 28.7481 11.9467 28.8539 11.7757L29.0069 11.5158C29.1126 11.3448 29.2564 11.2252 29.4381 11.1569C29.6199 11.0887 29.804 11.0872 29.9905 11.1524L30.6914 11.4149C30.8606 11.2169 31.0702 11.0472 31.3202 10.9057C31.5702 10.7644 31.8221 10.661 32.0759 10.5955L32.1827 9.91791C32.223 9.71591 32.3201 9.54953 32.4741 9.41878C32.6279 9.28803 32.8057 9.22266 33.0077 9.22266H33.2672C33.4692 9.22266 33.6471 9.28803 33.8009 9.41878C33.9549 9.54953 34.052 9.71591 34.0922 9.91791L34.1991 10.5955C34.4529 10.661 34.7047 10.7644 34.9547 10.9057C35.2047 11.0472 35.4144 11.2169 35.5836 11.4149L36.2845 11.1524C36.471 11.0872 36.6551 11.0887 36.8369 11.1569C37.0186 11.2252 37.1624 11.3448 37.2681 11.5158L37.4211 11.7757C37.5269 11.9467 37.5634 12.1293 37.5306 12.3235C37.4979 12.5178 37.396 12.6832 37.225 12.8197L36.6452 13.2955C36.6952 13.4303 36.725 13.5544 36.7345 13.6679C36.7442 13.7814 36.7491 13.9054 36.7491 14.0399C36.7491 14.1744 36.7442 14.2984 36.7345 14.4119C36.725 14.5254 36.6952 14.6495 36.6452 14.7843L37.225 15.2602C37.396 15.3967 37.4979 15.562 37.5306 15.7563C37.5634 15.9505 37.5269 16.1332 37.4211 16.3042L37.2681 16.564C37.1624 16.735 37.0186 16.8547 36.8369 16.9229C36.6551 16.9912 36.471 16.9927 36.2845 16.9274L35.5836 16.6649C35.4144 16.8629 35.2047 17.0327 34.9547 17.1742C34.7047 17.3154 34.4529 17.4188 34.1991 17.4843L34.0922 18.1619C34.052 18.3639 33.9549 18.5303 33.8009 18.661C33.6471 18.7918 33.4692 18.8572 33.2672 18.8572H33.0077C32.8057 18.8572 32.6279 18.7918 32.4741 18.661C32.3201 18.5303 32.223 18.3639 32.1827 18.1619ZM33.1375 16.0015C33.6912 16.0015 34.1566 15.813 34.5336 15.436C34.9106 15.059 35.0991 14.5937 35.0991 14.0399C35.0991 13.4862 34.9106 13.0208 34.5336 12.6438C34.1566 12.2668 33.6912 12.0783 33.1375 12.0783C32.5837 12.0783 32.1184 12.2668 31.7414 12.6438C31.3644 13.0208 31.1759 13.4862 31.1759 14.0399C31.1759 14.5937 31.3644 15.059 31.7414 15.436C32.1184 15.813 32.5837 16.0015 33.1375 16.0015Z" fill="white"/>
</svg>
