<svg width="22" height="12" viewBox="0 0 22 12" fill="none" xmlns="http://www.w3.org/2000/svg">
<path d="M1.08967 6.66532C0.941002 6.51648 0.867669 6.3424 0.869669 6.14307C0.871502 5.94373 0.950002 5.76648 1.10517 5.61132C1.26034 5.46648 1.436 5.39148 1.63217 5.38632C1.82817 5.38132 2.00375 5.45632 2.15892 5.61132L5.88217 9.33457L6.13217 9.08457C6.2295 9.13073 6.33175 9.18807 6.43892 9.25657C6.54592 9.32523 6.65134 9.41148 6.75517 9.51532C6.91034 9.67032 6.98534 9.8459 6.98017 10.0421C6.975 10.2382 6.89484 10.4139 6.73967 10.5691L6.49942 10.8096C6.31859 10.9801 6.10767 11.0678 5.86667 11.0728C5.62567 11.078 5.41475 10.9902 5.23392 10.8096L1.08967 6.66532ZM11.5167 9.31907L20.1897 0.646065C20.3385 0.497398 20.5126 0.423981 20.7119 0.425815C20.9113 0.427815 21.0885 0.506314 21.2437 0.661314C21.3885 0.816481 21.4635 0.992148 21.4687 1.18831C21.4737 1.38448 21.3987 1.56015 21.2437 1.71532L12.1494 10.8096C11.9686 10.9902 11.7577 11.0806 11.5167 11.0806C11.2757 11.0806 11.0648 10.9902 10.8839 10.8096L6.73967 6.66532C6.60134 6.52681 6.5305 6.35532 6.52717 6.15082C6.524 5.94632 6.59484 5.76648 6.73967 5.61132C6.89484 5.45632 7.07309 5.37882 7.27442 5.37882C7.47559 5.37882 7.65375 5.45632 7.80892 5.61132L11.5167 9.31907ZM15.5782 1.73056L11.6974 5.61132C11.5589 5.74982 11.3874 5.82065 11.1829 5.82382C10.9784 5.82715 10.7987 5.75632 10.6437 5.61132C10.4885 5.45632 10.4109 5.27815 10.4109 5.07682C10.4109 4.87548 10.4885 4.69731 10.6437 4.54231L14.5244 0.661314C14.6629 0.522981 14.8343 0.452148 15.0387 0.448814C15.2432 0.445648 15.423 0.516481 15.5782 0.661314C15.7333 0.816481 15.8109 0.994731 15.8109 1.19606C15.8109 1.39723 15.7333 1.5754 15.5782 1.73056Z" fill="#005948"/>
</svg>
