<svg width="86" height="31" viewBox="0 0 86 31" fill="none" xmlns="http://www.w3.org/2000/svg">
<path d="M14.4793 12.2453L10.2839 12.5027C10.2122 12.1452 10.058 11.8234 9.82137 11.5374C9.58468 11.2442 9.27275 11.0118 8.88549 10.8402C8.50536 10.6614 8.05 10.572 7.51931 10.572C6.80932 10.572 6.21051 10.7222 5.7228 11.0226C5.23518 11.3157 4.99136 11.709 4.99136 12.2024C4.99136 12.5957 5.14913 12.9282 5.46466 13.1999C5.7802 13.4716 6.32169 13.6897 7.08899 13.8542L10.0795 14.4548C11.6859 14.7838 12.8836 15.3129 13.6724 16.0422C14.4613 16.7716 14.8557 17.7298 14.8557 18.9168C14.8557 19.9965 14.5366 20.944 13.8983 21.7591C13.2672 22.5743 12.3995 23.2107 11.2951 23.6684C10.1979 24.1189 8.93208 24.3441 7.49777 24.3441C5.3105 24.3441 3.56779 23.89 2.2698 22.9819C0.978935 22.0666 0.222281 20.8224 0 19.2493L4.50726 19.0133C4.6435 19.6783 4.97343 20.186 5.49692 20.5364C6.02049 20.8796 6.69101 21.0512 7.50858 21.0512C8.31174 21.0512 8.95722 20.8975 9.44484 20.5901C9.93967 20.2754 10.1907 19.8714 10.1979 19.378C10.1907 18.9633 10.015 18.6236 9.67072 18.3591C9.32653 18.0873 8.79585 17.88 8.07865 17.7369L5.21725 17.1684C3.60365 16.8467 2.40243 16.2889 1.6136 15.4952C0.831896 14.7015 0.441038 13.6897 0.441038 12.4598C0.441038 11.4015 0.727916 10.4898 1.30159 9.72468C1.88255 8.95962 2.69652 8.36966 3.74349 7.95497C4.79774 7.54019 6.03122 7.33285 7.44399 7.33285C9.53089 7.33285 11.1731 7.7726 12.3708 8.65211C13.5757 9.53162 14.2784 10.7293 14.4793 12.2453ZM21.8937 19.2815L21.9044 13.8005H22.5714L27.8639 7.54738H33.1238L26.0137 15.8277H24.9272L21.8937 19.2815ZM17.7414 24.0223V2.0557H22.3239V24.0223H17.7414ZM28.0684 24.0223L23.206 16.8467L26.2611 13.6182L33.4366 24.0223H28.0684ZM38.4676 30.2004C37.8871 30.2004 37.3418 30.1539 36.8326 30.061C36.3307 29.9752 35.9148 29.8644 35.5849 29.7285L36.6173 26.3177C37.1552 26.4822 37.6399 26.5715 38.0697 26.5858C38.5077 26.6001 38.8835 26.5 39.1995 26.2855C39.5221 26.071 39.7841 25.7063 39.9846 25.1915L40.2532 24.4942L34.3265 7.54738H39.1455L42.5661 19.6462H42.7388L46.1913 7.54738H51.043L44.621 25.8028C44.3124 26.6895 43.8932 27.4617 43.3627 28.1196C42.8387 28.7846 42.1755 29.2959 41.3724 29.6534C40.5692 30.0181 39.6007 30.2004 38.4676 30.2004ZM57.971 2.0557V24.0223H53.3878V2.0557H57.971ZM61.6421 24.0223V7.54738H66.2244V24.0223H61.6421ZM63.9435 5.42362C63.2623 5.42362 62.6777 5.1984 62.1906 4.74787C61.71 4.29024 61.4693 3.74321 61.4693 3.10681C61.4693 2.47758 61.71 1.93774 62.1906 1.48724C62.6777 1.0296 63.2623 0.800781 63.9435 0.800781C64.6246 0.800781 65.2059 1.0296 65.6865 1.48724C66.1745 1.93774 66.4176 2.47758 66.4176 3.10681C66.4176 3.74321 66.1745 4.29024 65.6865 4.74787C65.2059 5.1984 64.6246 5.42362 63.9435 5.42362ZM77.3605 24.3441C75.6896 24.3441 74.2445 23.9902 73.0255 23.2822C71.8138 22.5671 70.878 21.5733 70.2181 20.3004C69.5582 19.0204 69.2283 17.5368 69.2283 15.8492C69.2283 14.1474 69.5582 12.66 70.2181 11.3872C70.878 10.1073 71.8138 9.11334 73.0255 8.40542C74.2445 7.6904 75.6896 7.33285 77.3605 7.33285C79.0315 7.33285 80.4733 7.6904 81.685 8.40542C82.9041 9.11334 83.8439 10.1073 84.5038 11.3872C85.1629 12.66 85.4928 14.1474 85.4928 15.8492C85.4928 17.5368 85.1629 19.0204 84.5038 20.3004C83.8439 21.5733 82.9041 22.5671 81.685 23.2822C80.4733 23.9902 79.0315 24.3441 77.3605 24.3441ZM77.3818 20.8045C78.1424 20.8045 78.7769 20.5901 79.2862 20.161C79.7954 19.7248 80.1794 19.1313 80.4373 18.3805C80.7025 17.6297 80.8352 16.7752 80.8352 15.817C80.8352 14.8588 80.7025 14.0044 80.4373 13.2535C80.1794 12.5027 79.7954 11.9093 79.2862 11.473C78.7769 11.0368 78.1424 10.8187 77.3818 10.8187C76.6147 10.8187 75.9696 11.0368 75.4456 11.473C74.9298 11.9093 74.5385 12.5027 74.2732 13.2535C74.0153 14.0044 73.8859 14.8588 73.8859 15.817C73.8859 16.7752 74.0153 17.6297 74.2732 18.3805C74.5385 19.1313 74.9298 19.7248 75.4456 20.161C75.9696 20.5901 76.6147 20.8045 77.3818 20.8045Z" fill="#5755EC"/>
</svg>
